<svg width="92" height="14" viewBox="0 0 92 14" fill="none" xmlns="http://www.w3.org/2000/svg">
<path d="M4.88588 10.2622C7.62988 10.2622 9.44988 8.63824 9.44988 5.26424H5.24988V6.37024H8.04988C8.04988 7.91024 6.62188 9.08624 4.88588 9.08624C2.85588 9.08624 1.27388 7.36424 1.27388 5.29224C1.27388 3.22024 2.85588 1.45624 4.88588 1.45624C5.79588 1.45624 6.63588 1.82024 7.25188 2.36624L8.13388 1.54024C7.29388 0.770238 6.15988 0.280238 4.88588 0.280238C2.14188 0.280238 -0.000119135 2.54824 -0.000119135 5.29224C-0.000119135 8.02224 2.14188 10.2622 4.88588 10.2622ZM13.9556 10.2622C15.8176 10.2622 17.3856 8.89024 17.3856 6.81824C17.3856 4.74624 15.8176 3.38824 13.9556 3.38824C12.0936 3.38824 10.5396 4.74624 10.5396 6.81824C10.5396 8.89024 12.0936 10.2622 13.9556 10.2622ZM13.9556 9.11424C12.7656 9.11424 11.7716 8.17624 11.7716 6.81824C11.7716 5.47424 12.7656 4.53624 13.9556 4.53624C15.1596 4.53624 16.1676 5.47424 16.1676 6.81824C16.1676 8.17624 15.1596 9.11424 13.9556 9.11424ZM22.0493 10.2622C23.9113 10.2622 25.4793 8.89024 25.4793 6.81824C25.4793 4.74624 23.9113 3.38824 22.0493 3.38824C20.1873 3.38824 18.6333 4.74624 18.6333 6.81824C18.6333 8.89024 20.1873 10.2622 22.0493 10.2622ZM22.0493 9.11424C20.8593 9.11424 19.8653 8.17624 19.8653 6.81824C19.8653 5.47424 20.8593 4.53624 22.0493 4.53624C23.2533 4.53624 24.2613 5.47424 24.2613 6.81824C24.2613 8.17624 23.2533 9.11424 22.0493 9.11424ZM32.3411 4.57824C31.9071 3.80824 30.9831 3.38824 30.0031 3.38824C28.2111 3.38824 26.7411 4.74624 26.7411 6.81824C26.7411 8.87624 28.2251 10.2622 30.0171 10.2622C30.9551 10.2622 31.9071 9.81424 32.3411 9.07224V10.0942H33.5591V0.000238061H32.3411V4.57824ZM30.1151 9.11424C28.9251 9.11424 27.9731 8.10624 27.9731 6.80424C27.9731 5.48824 28.9251 4.53624 30.1151 4.53624C31.1931 4.53624 32.3411 5.39024 32.3411 6.80424C32.3411 8.20424 31.2911 9.11424 30.1151 9.11424ZM49.3137 0.448238H48.1657L44.7357 7.60224L41.2917 0.448238H40.1437L38.9677 10.0942H40.2137L41.0957 2.74424L44.1897 9.04424H45.2957L48.3617 2.74424L49.2577 10.0942H50.5037L49.3137 0.448238ZM55.231 10.2622C57.093 10.2622 58.661 8.89024 58.661 6.81824C58.661 4.74624 57.093 3.38824 55.231 3.38824C53.369 3.38824 51.815 4.74624 51.815 6.81824C51.815 8.89024 53.369 10.2622 55.231 10.2622ZM55.231 9.11424C54.041 9.11424 53.047 8.17624 53.047 6.81824C53.047 5.47424 54.041 4.53624 55.231 4.53624C56.435 4.53624 57.443 5.47424 57.443 6.81824C57.443 8.17624 56.435 9.11424 55.231 9.11424ZM63.4227 3.38824C62.5547 3.38824 61.9247 3.89224 61.5887 5.04024V3.55624H60.3567V10.0942H61.5887V7.70024C61.5887 5.97824 62.1067 4.56424 63.4087 4.56424C63.6607 4.56424 64.0107 4.62024 64.3607 4.78824L64.5567 3.64024C64.3607 3.51424 63.8847 3.38824 63.4227 3.38824ZM69.1588 3.38824C68.4448 3.38824 67.3808 3.75224 66.9888 4.55024V3.55624H65.7708V10.0942H66.9888V6.55224C66.9888 5.13824 68.0808 4.59224 68.9908 4.59224C69.9008 4.59224 70.5728 5.29224 70.5728 6.38424V10.0942H71.7908V6.31424C71.8048 4.48024 70.7828 3.38824 69.1588 3.38824ZM74.4255 1.96024C74.9015 1.96024 75.2935 1.61024 75.2935 1.14824C75.2935 0.686238 74.9015 0.336238 74.4255 0.336238C73.9635 0.336238 73.5715 0.686238 73.5715 1.14824C73.5715 1.61024 73.9635 1.96024 74.4255 1.96024ZM75.0415 10.0942V3.55624H73.8235V10.0942H75.0415ZM80.5475 3.38824C79.8335 3.38824 78.7695 3.75224 78.3775 4.55024V3.55624H77.1595V10.0942H78.3775V6.55224C78.3775 5.13824 79.4695 4.59224 80.3795 4.59224C81.2895 4.59224 81.9615 5.29224 81.9615 6.38424V10.0942H83.1795V6.31424C83.1935 4.48024 82.1715 3.38824 80.5475 3.38824ZM90.3782 4.57824C89.9442 3.82224 89.0202 3.38824 88.0402 3.38824C86.2482 3.38824 84.7782 4.74624 84.7782 6.81824C84.7782 8.87624 86.2622 10.2622 88.0542 10.2622C88.9922 10.2622 89.9442 9.81424 90.3782 9.07224V9.26824C90.3782 11.4802 89.4822 12.2922 88.0402 12.2922C87.3122 12.2922 86.5422 11.8862 86.1362 11.1442L85.1002 11.6902C85.7442 12.8382 86.8502 13.4402 88.0402 13.4402C90.1962 13.4402 91.5962 12.2782 91.5962 9.18424V3.55624H90.3782V4.57824ZM88.1522 9.11424C86.9622 9.11424 86.0102 8.10624 86.0102 6.80424C86.0102 5.48824 86.9622 4.53624 88.1522 4.53624C89.2302 4.53624 90.3782 5.39024 90.3782 6.80424C90.3782 8.20424 89.3282 9.11424 88.1522 9.11424Z" fill="#0A2533"/>
</svg>
