<svg width="117" height="19" viewBox="0 0 117 19" fill="none" xmlns="http://www.w3.org/2000/svg">
<path d="M14.9401 0.340117H12.5401L8.32006 9.38012L4.06006 0.340117H1.70006L5.86361e-05 14.1201H2.84006L3.84006 5.58012L7.24006 12.5601H9.42006L12.7801 5.58012L13.7801 14.1201H16.6201L14.9401 0.340117ZM22.5218 10.1801L20.3218 4.78012H17.4418L21.1418 13.2401L18.9218 18.7001H21.7218L27.4818 4.78012H24.6618L22.5218 10.1801ZM42.3069 0.340117H33.7869V14.1201H36.5669V8.56012H41.1269V6.12012H36.5669V2.80012H42.3069V0.340117ZM50.4469 6.02012C49.8269 5.06012 48.6269 4.54012 47.4269 4.54012C44.7469 4.54012 42.8669 6.56012 42.8669 9.46012C42.8669 12.3601 44.7869 14.3601 47.3669 14.3601C48.6269 14.3601 49.8269 13.7401 50.4469 12.7801V14.1201H53.0669V4.78012H50.4469V6.02012ZM47.9469 11.9201C46.5669 11.9201 45.5469 10.7601 45.5469 9.46012C45.5469 8.10012 46.5669 6.98012 47.9269 6.98012C49.2269 6.98012 50.3669 8.04012 50.3669 9.46012C50.3669 10.8001 49.2669 11.9201 47.9469 11.9201ZM59.5921 10.7401L57.3121 4.78012H54.4721L58.4121 14.1201H60.7521L64.6921 4.78012H61.8321L59.5921 10.7401ZM70.3083 14.3601C72.9683 14.3601 75.3283 12.4001 75.3283 9.46012C75.3283 6.50012 72.9683 4.54012 70.3083 4.54012C67.6483 4.54012 65.2883 6.50012 65.2883 9.46012C65.2883 12.4001 67.6483 14.3601 70.3083 14.3601ZM70.3083 11.9201C69.0083 11.9201 67.9483 10.9001 67.9483 9.46012C67.9483 8.00012 69.0083 6.98012 70.3083 6.98012C71.6083 6.98012 72.6683 8.00012 72.6683 9.46012C72.6683 10.9001 71.6083 11.9201 70.3083 11.9201ZM82.7318 4.54012C81.5718 4.54012 80.5118 5.22012 79.9918 6.78012V4.78012H77.3918V14.1201H80.0118V10.9201C80.0118 8.26012 80.9318 7.00012 82.2718 7.00012C82.5918 7.00012 83.0518 7.04012 83.6118 7.34012L84.2118 4.84012C83.7918 4.62012 83.2318 4.54012 82.7318 4.54012ZM86.9144 3.14012C87.8344 3.14012 88.5744 2.44012 88.5744 1.56012C88.5744 0.680116 87.8344 0.000116587 86.9144 0.000116587C86.0144 0.000116587 85.2544 0.680116 85.2544 1.56012C85.2544 2.44012 86.0144 3.14012 86.9144 3.14012ZM88.2344 14.1201V4.78012H85.6144V14.1201H88.2344ZM94.3883 4.78012V1.38012H91.7683V4.78012H90.0683V6.82012H91.7683V14.1201H94.3883V6.82012H96.3683V4.78012H94.3883ZM107.121 9.30012C107.121 6.44012 104.941 4.54012 102.261 4.54012C99.6005 4.54012 97.3005 6.44012 97.3005 9.46012C97.3005 12.3401 99.4005 14.3601 102.281 14.3601C103.921 14.3601 105.541 13.6601 106.421 12.4801L104.901 10.9401C104.321 11.6001 103.401 12.0401 102.441 12.0401C101.201 12.0401 100.321 11.4001 100.041 10.3001H107.061C107.101 9.88012 107.121 9.56012 107.121 9.30012ZM100.041 8.60012C100.321 7.34012 101.241 6.80012 102.321 6.80012C103.501 6.80012 104.401 7.50012 104.481 8.60012H100.041ZM112.45 14.3601C114.37 14.3601 116.37 13.3401 116.37 11.3801C116.37 10.6201 116.09 9.22012 113.85 8.62012L112.31 8.22012C111.79 8.08012 111.39 7.86012 111.39 7.42012C111.39 6.94012 111.87 6.60012 112.47 6.60012C113.09 6.60012 113.61 6.94012 113.61 7.58012H116.11C116.13 5.36012 114.13 4.54012 112.43 4.54012C110.27 4.54012 108.77 5.90012 108.77 7.34012C108.77 8.32012 109.09 9.66012 111.49 10.3001L112.73 10.6001C113.43 10.7801 113.75 10.9801 113.75 11.3801C113.75 11.9201 113.17 12.3001 112.41 12.3001C111.49 12.3001 111.03 11.7201 111.03 11.1801H108.57C108.59 13.2401 110.49 14.3601 112.45 14.3601Z" fill="#0A2533"/>
</svg>
