<svg width="24" height="24" viewBox="0 0 24 24" fill="none" xmlns="http://www.w3.org/2000/svg">
<path d="M5.80615 14.6763V16.9701C5.80615 19.1328 5.80615 20.2141 6.478 20.886C7.14986 21.5578 8.23119 21.5578 10.3938 21.5578H13.4523C15.615 21.5578 16.6963 21.5578 17.3681 20.886C18.04 20.2141 18.04 19.1328 18.04 16.9701V14.6763" stroke="white" stroke-width="1.5" stroke-linecap="round"/>
<path d="M5.80598 14.6129C3.63623 14.2489 1.98291 12.3619 1.98291 10.0887C1.98291 7.55495 4.03689 5.50098 6.5706 5.50098C6.88542 5.50098 7.19283 5.53269 7.48982 5.59309" stroke="white" stroke-width="1.5" stroke-linecap="round"/>
<path d="M18.1946 14.6129C20.3643 14.2489 22.0177 12.3619 22.0177 10.0887C22.0177 7.55495 19.9637 5.50098 17.43 5.50098C17.1151 5.50098 16.8077 5.53269 16.5107 5.59309" stroke="white" stroke-width="1.5" stroke-linecap="round"/>
<path d="M7.47998 8.17699C7.38563 7.81042 7.33545 7.4261 7.33545 7.03007C7.33545 4.49636 9.38943 2.44238 11.9231 2.44238C14.4568 2.44238 16.5108 4.49636 16.5108 7.03007C16.5108 7.4261 16.4606 7.81042 16.3663 8.17699" stroke="white" stroke-width="1.5" stroke-linecap="round"/>
<path d="M5.80615 18.1172H18.04" stroke="white" stroke-width="1.5"/>
<path d="M11.8931 10.7329V13.1355" stroke="white" stroke-width="1.5" stroke-linecap="round"/>
<path d="M7.64418 10.9346C7.45211 11.3636 7.80422 12.9991 8.22036 13.2672" stroke="white" stroke-width="1.5" stroke-linecap="round"/>
<path d="M16.4569 10.9346C16.649 11.3636 16.2969 12.9991 15.8807 13.2672" stroke="white" stroke-width="1.5" stroke-linecap="round"/>
</svg>
