<svg width="19" height="19" viewBox="0 0 19 19" fill="none" xmlns="http://www.w3.org/2000/svg">
<path fill-rule="evenodd" clip-rule="evenodd" d="M9.16667 0C9.38768 0 9.59964 0.0877973 9.75592 0.244078C9.9122 0.400358 10 0.61232 10 0.833333V2.5C10 2.72101 9.9122 2.93297 9.75592 3.08926C9.59964 3.24554 9.38768 3.33333 9.16667 3.33333C8.94565 3.33333 8.73369 3.24554 8.57741 3.08926C8.42113 2.93297 8.33333 2.72101 8.33333 2.5V0.833333C8.33333 0.61232 8.42113 0.400358 8.57741 0.244078C8.73369 0.0877973 8.94565 0 9.16667 0ZM4.16667 9.16667C4.16667 7.84058 4.69345 6.56881 5.63113 5.63113C6.56881 4.69345 7.84058 4.16667 9.16667 4.16667C10.4927 4.16667 11.7645 4.69345 12.7022 5.63113C13.6399 6.56881 14.1667 7.84058 14.1667 9.16667C14.1667 10.4927 13.6399 11.7645 12.7022 12.7022C11.7645 13.6399 10.4927 14.1667 9.16667 14.1667C7.84058 14.1667 6.56881 13.6399 5.63113 12.7022C4.69345 11.7645 4.16667 10.4927 4.16667 9.16667ZM9.16667 5.83333C8.28261 5.83333 7.43476 6.18452 6.80964 6.80964C6.18452 7.43476 5.83333 8.28261 5.83333 9.16667C5.83333 10.0507 6.18452 10.8986 6.80964 11.5237C7.43476 12.1488 8.28261 12.5 9.16667 12.5C10.0507 12.5 10.8986 12.1488 11.5237 11.5237C12.1488 10.8986 12.5 10.0507 12.5 9.16667C12.5 8.28261 12.1488 7.43476 11.5237 6.80964C10.8986 6.18452 10.0507 5.83333 9.16667 5.83333ZM10 15.8333C10 15.6123 9.9122 15.4004 9.75592 15.2441C9.59964 15.0878 9.38768 15 9.16667 15C8.94565 15 8.73369 15.0878 8.57741 15.2441C8.42113 15.4004 8.33333 15.6123 8.33333 15.8333V17.5C8.33333 17.721 8.42113 17.933 8.57741 18.0893C8.73369 18.2455 8.94565 18.3333 9.16667 18.3333C9.38768 18.3333 9.59964 18.2455 9.75592 18.0893C9.9122 17.933 10 17.721 10 17.5V15.8333ZM18.3333 9.16667C18.3333 9.38768 18.2455 9.59964 18.0893 9.75592C17.933 9.9122 17.721 10 17.5 10H15.8333C15.6123 10 15.4004 9.9122 15.2441 9.75592C15.0878 9.59964 15 9.38768 15 9.16667C15 8.94565 15.0878 8.73369 15.2441 8.57741C15.4004 8.42113 15.6123 8.33333 15.8333 8.33333H17.5C17.721 8.33333 17.933 8.42113 18.0893 8.57741C18.2455 8.73369 18.3333 8.94565 18.3333 9.16667ZM2.5 10C2.72101 10 2.93297 9.9122 3.08926 9.75592C3.24554 9.59964 3.33333 9.38768 3.33333 9.16667C3.33333 8.94565 3.24554 8.73369 3.08926 8.57741C2.93297 8.42113 2.72101 8.33333 2.5 8.33333H0.833333C0.612319 8.33333 0.400358 8.42113 0.244078 8.57741C0.0877973 8.73369 0 8.94565 0 9.16667C0 9.38768 0.0877973 9.59964 0.244078 9.75592C0.400358 9.9122 0.612319 10 0.833333 10H2.5ZM15.6483 2.685C15.8046 2.84127 15.8923 3.0532 15.8923 3.27417C15.8923 3.49514 15.8046 3.70706 15.6483 3.86333L14.47 5.04167C14.3931 5.12126 14.3012 5.18474 14.1995 5.22842C14.0978 5.27209 13.9885 5.29508 13.8778 5.29604C13.7672 5.297 13.6574 5.27592 13.555 5.23402C13.4526 5.19212 13.3596 5.13024 13.2813 5.052C13.2031 4.97375 13.1412 4.88071 13.0993 4.77829C13.0574 4.67588 13.0363 4.56615 13.0373 4.4555C13.0382 4.34485 13.0612 4.2355 13.1049 4.13383C13.1486 4.03216 13.2121 3.94021 13.2917 3.86333L14.47 2.685C14.6263 2.52877 14.8382 2.44101 15.0592 2.44101C15.2801 2.44101 15.4921 2.52877 15.6483 2.685ZM5.04167 14.47C5.12126 14.3931 5.18474 14.3012 5.22842 14.1995C5.27209 14.0978 5.29508 13.9885 5.29604 13.8778C5.297 13.7672 5.27592 13.6575 5.23402 13.555C5.19212 13.4526 5.13024 13.3596 5.052 13.2813C4.97375 13.2031 4.88071 13.1412 4.77829 13.0993C4.67588 13.0574 4.56615 13.0363 4.4555 13.0373C4.34485 13.0383 4.2355 13.0612 4.13383 13.1049C4.03216 13.1486 3.94021 13.2121 3.86333 13.2917L2.685 14.47C2.60541 14.5469 2.54192 14.6388 2.49825 14.7405C2.45457 14.8422 2.43159 14.9515 2.43062 15.0622C2.42966 15.1728 2.45075 15.2825 2.49265 15.385C2.53455 15.4874 2.59643 15.5804 2.67467 15.6587C2.75291 15.7369 2.84596 15.7988 2.94837 15.8407C3.05078 15.8826 3.16052 15.9037 3.27117 15.9027C3.38182 15.9017 3.49117 15.8788 3.59284 15.8351C3.69451 15.7914 3.78646 15.7279 3.86333 15.6483L5.04167 14.47ZM2.685 2.685C2.84127 2.52877 3.0532 2.44101 3.27417 2.44101C3.49514 2.44101 3.70706 2.52877 3.86333 2.685L5.04167 3.86333C5.12126 3.94021 5.18474 4.03216 5.22842 4.13383C5.27209 4.2355 5.29508 4.34485 5.29604 4.4555C5.297 4.56615 5.27592 4.67588 5.23402 4.77829C5.19212 4.88071 5.13024 4.97375 5.052 5.052C4.97375 5.13024 4.88071 5.19212 4.77829 5.23402C4.67588 5.27592 4.56615 5.297 4.4555 5.29604C4.34485 5.29508 4.2355 5.27209 4.13383 5.22842C4.03216 5.18474 3.94021 5.12126 3.86333 5.04167L2.685 3.86333C2.52877 3.70706 2.44101 3.49514 2.44101 3.27417C2.44101 3.0532 2.52877 2.84127 2.685 2.685ZM14.47 13.2917C14.3128 13.1399 14.1023 13.0559 13.8838 13.0578C13.6653 13.0597 13.4563 13.1473 13.3018 13.3018C13.1473 13.4563 13.0597 13.6653 13.0578 13.8838C13.0559 14.1023 13.1399 14.3128 13.2917 14.47L14.47 15.6483C14.6272 15.8001 14.8377 15.8841 15.0562 15.8822C15.2747 15.8803 15.4837 15.7927 15.6382 15.6382C15.7927 15.4837 15.8803 15.2747 15.8822 15.0562C15.8841 14.8377 15.8001 14.6272 15.6483 14.47L14.47 13.2917Z" fill="#4D8194"/>
</svg>
