<svg width="17" height="17" viewBox="0 0 17 17" fill="none" xmlns="http://www.w3.org/2000/svg">
<path d="M12.3969 1.9536C11.9776 1.8129 11.5366 1.7506 11.0949 1.7506C10.1219 1.7436 9.17761 2.0656 8.39991 2.6599C8.33691 2.6116 8.25991 2.5689 8.18991 2.5276C8.11991 2.4849 7.99391 2.3806 7.88891 2.3246L7.62291 2.2056C7.48291 2.1286 7.33661 2.0726 7.18191 2.0229C7.16791 2.0096 7.14691 1.9949 7.11891 1.9816H7.07761C6.66391 1.8409 6.23691 1.7639 5.79591 1.7506H5.71891C5.52291 1.7506 5.32761 1.7639 5.13091 1.7926H5.04691C4.83691 1.8199 4.62761 1.8689 4.42461 1.9389C1.81291 2.7936 0.881914 5.6286 1.67291 8.1066C2.12091 9.3729 2.84261 10.5216 3.78061 11.4659C5.14491 12.7819 6.63661 13.9439 8.23891 14.9379L8.42091 15.0506L8.59591 14.9449C10.1926 13.9439 11.6759 12.7819 13.0276 11.4729C13.9719 10.5286 14.6929 9.3729 15.1339 8.1066C15.9116 5.6286 14.9806 2.7936 12.3969 1.9536Z" fill="#70B9BE"/>
<path d="M13.5099 6.25765C13.4889 6.55235 13.2439 6.78265 12.9569 6.79035C12.8029 6.77565 12.6559 6.70635 12.5579 6.58735C12.4599 6.46835 12.4116 6.31365 12.4249 6.15335V6.13165C12.4249 5.64235 12.1246 5.20065 11.6759 5.03265C11.3819 4.92835 11.2279 4.60635 11.3259 4.31235C11.4309 4.01835 11.7459 3.86365 12.0329 3.96235C12.9366 4.30535 13.5309 5.19365 13.5099 6.17435V6.25765Z" fill="#C6E3E5"/>
</svg>
